<svg xmlns="http://www.w3.org/2000/svg" xmlns:xlink="http://www.w3.org/1999/xlink" contentStyleType="text/css" data-diagram-type="STATE" height="968px" preserveAspectRatio="none" style="width:679px;height:968px;background:#FFFFFF;" version="1.1" viewBox="0 0 679 968" width="679px" zoomAndPan="magnify"><?plantuml $version$?><defs/><g><g class="title" data-source-line="8"><text fill="#000000" font-family="sans-serif" font-size="14" font-weight="700" lengthAdjust="spacing" textLength="280.0684" x="127.1475" y="23.1318">22 &#8212; Diagrama de estados del Grupo TFG</text><text fill="#000000" font-family="sans-serif" font-size="14" font-weight="700" lengthAdjust="spacing" textLength="294.0957" x="120.1338" y="39.2305">RF-10 &#8212; primera etapa hasta entrega formal</text></g><g class="entity" data-qualified-name="Pendiente" data-source-line="10" id="ent0001"><rect fill="#F1F1F1" height="50" rx="12.5" ry="12.5" style="stroke:#181818;stroke-width:0.5;" width="172.5439" x="179.1816" y="143.1973"/><line style="stroke:#181818;stroke-width:0.5;" x1="179.1816" x2="351.7256" y1="169.2959" y2="169.2959"/><text fill="#000000" font-family="sans-serif" font-size="14" lengthAdjust="spacing" textLength="152.5439" x="189.1816" y="161.3291">Pendiente de inscripci&#243;n</text></g><g class="entity" data-qualified-name="Inscripto" data-source-line="11" id="ent0002"><rect fill="#F1F1F1" height="50" rx="12.5" ry="12.5" style="stroke:#181818;stroke-width:0.5;" width="72.9102" x="229.1816" y="292.1973"/><line style="stroke:#181818;stroke-width:0.5;" x1="229.1816" x2="302.0918" y1="318.2959" y2="318.2959"/><text fill="#000000" font-family="sans-serif" font-size="14" lengthAdjust="spacing" textLength="52.9102" x="239.1816" y="310.3291">Inscripto</text></g><g class="entity" data-qualified-name="TutorAsignado" data-source-line="12" id="ent0003"><rect fill="#F1F1F1" height="50" rx="12.5" ry="12.5" style="stroke:#181818;stroke-width:0.5;" width="113.3926" x="209.1816" y="426.1973"/><line style="stroke:#181818;stroke-width:0.5;" x1="209.1816" x2="322.5742" y1="452.2959" y2="452.2959"/><text fill="#000000" font-family="sans-serif" font-size="14" lengthAdjust="spacing" textLength="93.3926" x="219.1816" y="444.3291">Tutor asignado</text></g><g class="entity" data-qualified-name="Elaboracion" data-source-line="13" id="ent0004"><rect fill="#F1F1F1" height="52.1973" rx="12.5" ry="12.5" style="stroke:#181818;stroke-width:0.5;" width="120.4063" x="205.6816" y="560.1973"/><line style="stroke:#181818;stroke-width:0.5;" x1="205.6816" x2="326.0879" y1="602.3945" y2="602.3945"/><text fill="#000000" font-family="sans-serif" font-size="14" lengthAdjust="spacing" textLength="93.3994" x="215.6816" y="578.3291">En elaboraci&#243;n</text><text fill="#000000" font-family="sans-serif" font-size="14" lengthAdjust="spacing" textLength="100.4063" x="215.6816" y="594.4277">de anteproyecto</text></g><g class="entity" data-qualified-name="ValidarEntrega" id="ent0005"><polygon fill="#F1F1F1" points="265.6816,696.1973,277.6816,708.1973,265.6816,720.1973,253.6816,708.1973,265.6816,696.1973" style="stroke:#181818;stroke-width:0.5;stroke-linejoin:miter;stroke-miterlimit:10;"/></g><g class="entity" data-qualified-name="Entregado" data-source-line="15" id="ent0006"><rect fill="#F1F1F1" height="52.1973" rx="12.5" ry="12.5" style="stroke:#181818;stroke-width:0.5;" width="102.4961" x="214.6816" y="804.1973"/><line style="stroke:#181818;stroke-width:0.5;" x1="214.6816" x2="317.1777" y1="846.3945" y2="846.3945"/><text fill="#000000" font-family="sans-serif" font-size="14" lengthAdjust="spacing" textLength="82.4961" x="224.6816" y="822.3291">Anteproyecto</text><text fill="#000000" font-family="sans-serif" font-size="14" lengthAdjust="spacing" textLength="63.0547" x="224.6816" y="838.4277">entregado</text></g><g class="start_entity" data-qualified-name=".start." data-source-line="17" id="ent0007"><ellipse cx="265.6816" cy="75.1973" fill="#222222" rx="10" ry="10" style="stroke:#222222;stroke-width:1;"/></g><g class="end_entity" data-qualified-name=".end." data-source-line="26" id="ent0017"><ellipse cx="265.6816" cy="904.1973" fill="none" rx="11" ry="11" style="stroke:#222222;stroke-width:1;"/><ellipse cx="265.6816" cy="904.1973" fill="#222222" rx="6" ry="6" style="stroke:#222222;stroke-width:1;"/></g><g class="link" data-entity-1="ent0007" data-entity-2="ent0001" data-link-type="dependency" id="lnk8"><polygon fill="#181818" points="265.6816,142.953,269.6816,133.953,265.6816,137.953,261.6816,133.953,265.6816,142.953" style="stroke:#181818;stroke-width:1;stroke-linejoin:miter;stroke-miterlimit:10;"/><path d="M265.6816,89.4692 C265.6816,102.8467 265.6816,120.5323 265.6816,137.953" fill="none" style="stroke:#181818;stroke-width:1;"/><text fill="#000000" font-family="sans-serif" font-size="13" lengthAdjust="spacing" textLength="96.0908" x="267.6816" y="121.3911">iniciarInscripcion</text></g><g class="link" data-entity-1="ent0001" data-entity-2="ent0002" data-link-type="dependency" id="lnk9"><polygon fill="#181818" points="265.6816,291.8871,269.6816,282.8871,265.6816,286.8871,261.6816,282.8871,265.6816,291.8871" style="stroke:#181818;stroke-width:1;stroke-linejoin:miter;stroke-miterlimit:10;"/><path d="M265.6816,193.4713 C265.6816,220.7081 265.6816,259.6357 265.6816,286.8871" fill="none" style="stroke:#181818;stroke-width:1;"/><text fill="#000000" font-family="sans-serif" font-size="13" lengthAdjust="spacing" textLength="80.9136" x="349.3538" y="225.3911">inscribirGrupo</text><text fill="#000000" font-family="sans-serif" font-size="13" lengthAdjust="spacing" textLength="242.8169" x="268.4021" y="240.3398">[datosCompletos and integrantesEntre1y3</text><text fill="#000000" font-family="sans-serif" font-size="13" lengthAdjust="spacing" textLength="244.2578" x="267.6816" y="255.2886">and sinPertenenciaDuplicadaEnSemestre]</text><text fill="#000000" font-family="sans-serif" font-size="13" lengthAdjust="spacing" textLength="207.3589" x="286.1311" y="270.2373">/ registrarInscripcion(fecha, usuario)</text></g><g class="link" data-entity-1="ent0001" data-entity-2="ent0001" data-link-type="dependency" id="lnk10"><polygon fill="#181818" points="352.5682,176.6327,362.0411,179.328,357.5186,175.9299,360.9167,171.4074,352.5682,176.6327" style="stroke:#181818;stroke-width:1;stroke-linejoin:miter;stroke-miterlimit:10;"/><path d="M352.5682,159.7618 C363.2071,161.2722 370.1816,164.084 370.1816,168.1973 C370.1816,172.3105 368.1575,174.4196 357.5186,175.9299" fill="none" style="stroke:#181818;stroke-width:1;"/><text fill="#000000" font-family="sans-serif" font-size="13" lengthAdjust="spacing" textLength="80.9136" x="484.9255" y="158.3911">inscribirGrupo</text><text fill="#000000" font-family="sans-serif" font-size="13" lengthAdjust="spacing" textLength="306.4014" x="372.1816" y="173.3398">[datosInvalidos or pertenenciaDuplicadaEnSemestre]</text><text fill="#000000" font-family="sans-serif" font-size="13" lengthAdjust="spacing" textLength="176.2744" x="437.2451" y="188.2886">/ informarErroresDeInscripcion</text></g><g class="link" data-entity-1="ent0002" data-entity-2="ent0003" data-link-type="dependency" id="lnk11"><polygon fill="#181818" points="265.6816,426.1399,269.6816,417.1399,265.6816,421.1399,261.6816,417.1399,265.6816,426.1399" style="stroke:#181818;stroke-width:1;stroke-linejoin:miter;stroke-miterlimit:10;"/><path d="M265.6816,342.4081 C265.6816,366.2252 265.6816,397.376 265.6816,421.1399" fill="none" style="stroke:#181818;stroke-width:1;"/><text fill="#000000" font-family="sans-serif" font-size="13" lengthAdjust="spacing" textLength="72.979" x="373.9065" y="374.3911">asignarTutor</text><text fill="#000000" font-family="sans-serif" font-size="13" lengthAdjust="spacing" textLength="285.4287" x="267.6816" y="389.3398">[actorEsComision and antesDeFechaPublicacion]</text><text fill="#000000" font-family="sans-serif" font-size="13" lengthAdjust="spacing" textLength="208.8188" x="305.9866" y="404.2886">/ registrarAsignacion(fecha, usuario)</text></g><g class="link" data-entity-1="ent0003" data-entity-2="ent0003" data-link-type="dependency" id="lnk12"><polygon fill="#181818" points="322.2071,462.937,331.667,465.6778,327.1608,462.258,330.5806,457.7519,322.2071,462.937" style="stroke:#181818;stroke-width:1;stroke-linejoin:miter;stroke-miterlimit:10;"/><path d="M322.2071,439.4575 C332.7539,440.9031 340.1816,444.8164 340.1816,451.1973 C340.1816,457.5781 337.7076,460.8124 327.1608,462.258" fill="none" style="stroke:#181818;stroke-width:1;"/><text fill="#000000" font-family="sans-serif" font-size="13" lengthAdjust="spacing" textLength="109.1226" x="342.1816" y="448.8911">publicarAsignacion</text><text fill="#000000" font-family="sans-serif" font-size="13" lengthAdjust="spacing" textLength="88.8735" x="352.3062" y="463.8398">/ notificarGrupo</text></g><g class="link" data-entity-1="ent0003" data-entity-2="ent0004" data-link-type="dependency" id="lnk13"><polygon fill="#181818" points="265.6816,559.9341,269.6816,550.9341,265.6816,554.9341,261.6816,550.9341,265.6816,559.9341" style="stroke:#181818;stroke-width:1;stroke-linejoin:miter;stroke-miterlimit:10;"/><path d="M265.6816,476.2826 C265.6816,499.9375 265.6816,530.8812 265.6816,554.9341" fill="none" style="stroke:#181818;stroke-width:1;"/><text fill="#000000" font-family="sans-serif" font-size="13" lengthAdjust="spacing" textLength="139.439" x="325.4961" y="508.3911">cargarVersionPreliminar</text><text fill="#000000" font-family="sans-serif" font-size="13" lengthAdjust="spacing" textLength="255.0679" x="267.6816" y="523.3398">[tituloProblemaObjetivoYAlcanceCompletos]</text><text fill="#000000" font-family="sans-serif" font-size="13" lengthAdjust="spacing" textLength="247.8125" x="271.3093" y="538.2886">/ registrarVersionPreliminar(fecha, usuario)</text></g><g class="link" data-entity-1="ent0004" data-entity-2="ent0005" data-link-type="dependency" id="lnk14"><polygon fill="#181818" points="253.5326,706.5273,244.9622,701.6746,248.5561,706.0432,244.1876,709.6371,253.5326,706.5273" style="stroke:#181818;stroke-width:1;stroke-linejoin:miter;stroke-miterlimit:10;"/><path d="M206.5171,612.447 C200.2207,617.4381 194.6694,623.3142 190.6816,630.1973 C179.9871,648.6564 178.6198,660.6012 190.6816,678.1973 C204.8893,698.9237 231.2198,704.3566 248.5561,706.0432" fill="none" style="stroke:#181818;stroke-width:1;"/><text fill="#000000" font-family="sans-serif" font-size="13" lengthAdjust="spacing" textLength="125.0234" x="192.6816" y="659.3911">entregarAnteproyecto</text></g><g class="link" data-entity-1="ent0005" data-entity-2="ent0006" data-link-type="dependency" id="lnk15"><polygon fill="#181818" points="265.6816,804.0048,269.6816,795.0048,265.6816,799.0048,261.6816,795.0048,265.6816,804.0048" style="stroke:#181818;stroke-width:1;stroke-linejoin:miter;stroke-miterlimit:10;"/><path d="M265.6816,720.2715 C265.6816,739.1865 265.6816,773.1741 265.6816,799.0048" fill="none" style="stroke:#181818;stroke-width:1;"/><text fill="#000000" font-family="sans-serif" font-size="13" lengthAdjust="spacing" textLength="132.2344" x="296.9412" y="752.3911">[antesOEnFechaLimite</text><text fill="#000000" font-family="sans-serif" font-size="13" lengthAdjust="spacing" textLength="190.7534" x="267.6816" y="767.3398">or autorizacionExpresaComision]</text><text fill="#000000" font-family="sans-serif" font-size="13" lengthAdjust="spacing" textLength="190.7534" x="267.6816" y="782.2886">/ registrarEntrega(fecha, usuario)</text></g><g class="link" data-entity-1="ent0005" data-entity-2="ent0004" data-link-type="dependency" id="lnk16"><polygon fill="#181818" points="306.1554,612.3211,309.9132,621.4249,309.7758,615.7697,315.431,615.6323,306.1554,612.3211" style="stroke:#181818;stroke-width:1;stroke-linejoin:miter;stroke-miterlimit:10;"/><path d="M278.1208,704.4563 C291.0819,700.8641 310.7243,693.175 319.6816,678.1973 C330.6312,659.8883 328.9447,649.4146 319.6816,630.1973 C316.4554,623.504 315.2449,620.9793 309.7758,615.7697" fill="none" style="stroke:#181818;stroke-width:1;"/><text fill="#000000" font-family="sans-serif" font-size="13" lengthAdjust="spacing" textLength="117.0698" x="381.4307" y="644.3911">[fechaLimiteVencida</text><text fill="#000000" font-family="sans-serif" font-size="13" lengthAdjust="spacing" textLength="222.5679" x="328.6816" y="659.3398">and not autorizacionExpresaComision]</text><text fill="#000000" font-family="sans-serif" font-size="13" lengthAdjust="spacing" textLength="186.4307" x="346.7502" y="674.2886">/ rechazarEntregaFueraDePlazo</text></g><g class="link" data-entity-1="ent0006" data-entity-2="ent0017" data-link-type="dependency" id="lnk18"><polygon fill="#181818" points="265.6816,893.1201,269.6816,884.1201,265.6816,888.1201,261.6816,884.1201,265.6816,893.1201" style="stroke:#181818;stroke-width:1;stroke-linejoin:miter;stroke-miterlimit:10;"/><path d="M265.6816,856.3197 C265.6816,868.8575 265.6816,878.3854 265.6816,888.1201" fill="none" style="stroke:#181818;stroke-width:1;"/></g><g class="legend" data-source-line="28"><rect fill="#DDDDDD" height="26.0986" rx="7.5" ry="7.5" style="stroke:#000000;stroke-width:1;" width="510.3633" x="12" y="923.1973"/><text fill="#000000" font-family="sans-serif" font-size="14" lengthAdjust="spacing" textLength="500.3633" x="17" y="941.3291">Estados sustantivos definidos por RF-10. No incluye dictamen, defensa ni cierre.</text></g><?plantuml-src ZLHTRjD047xtAOO-0MfB6zwgggWYJbK9Q0HL4KhwCB4doS1wrnglIrE4n26u2GT0Wfjm4cRNSHAtaU35Mk_yVDzyCpkFIi5PWM1muMeFLK4UBIRUbU0TJ9pthe2SXJBFpYRL9xOb2XPG-OKX_GfdlYxCfcMEkVlCTWPJD1LrOj0JV4a0NkCj5tNnddC_Xrxl8FcQUFQQiDU3Fz--GvznfX48EG5fMEugFHeuaxfqS3au6zktWxt3W-XS2XSa24gzH9YZ-WDPBpH3c3efq2H90xqp99kpsYWaPbjbmcN6lt_O7S0ALjRM_Rpny2wQLt-j-RBsJjJ2CwiCeq-yEbtUj7wf1J8uSO8HQsmL71Mc5BTGOPl8jFK8CZTnltwcopBcE673gWE-YCvNQ3X7QSt7nzdSSKOd9stewKRwiLsgiUIOjdz9Cdfw3Njx9-lAuKXbuOnHpbjrbC_Q79nNEaJdS9wmnCwCxIX7xwgNhYWDwK7BpDN7atPJlrM4Fbmy7zjWgDWEIJmfFqNirwNXJ4jCxJigjEj2rsFx39Ghwq-7qUCfPNFSXRggKTWzkSUmMyusXkVs9aYe3BM3vRz9i8sJ9Ac84whwj2dFMf00tXa19T3CXyHhXKVjYAH18guqE2eKjUdJ81Grh2U1GKZSBRz9kRNwBkGs4cMJTID9o6sTvscuZjfiIRCnb9f47MSeLoI1-538SC5QcHQbZxSsRYXkOgZ0Yyb7ydpZFfoQ36r6gt7e5lGWqOEwDk43dNjZVzG-SzaSz-IULwoZ7NcD6KMrBr8RvNwbq9x6DZpaK3xVHRZqjjGsOzkbBl5bjWTqjm5t11nDrv1NOTvoR5w2Dk8_u3NsRfL-KElEwzFGu9rBrlK5K7tLIM9efgzWkSAJTBb4greFDZGdBDIfllLmMshrSP_kmnkdivwPUg4hKbSx5cHtWoVP2i4oP4mYj9zexWRXBm00?></g></svg>