<svg xmlns="http://www.w3.org/2000/svg" xmlns:xlink="http://www.w3.org/1999/xlink" contentStyleType="text/css" data-diagram-type="CLASS" height="648px" preserveAspectRatio="none" style="width:929px;height:648px;background:#FFFFFF;" version="1.1" viewBox="0 0 929 648" width="929px" zoomAndPan="magnify"><?plantuml $version$?><defs/><g><g class="title" data-source-line="5"><text fill="#000000" font-family="sans-serif" font-size="14" font-weight="700" lengthAdjust="spacing" textLength="213.1787" x="354.6606" y="23.1318">24 &#8212; Diagrama entidad-relaci&#243;n</text><text fill="#000000" font-family="sans-serif" font-size="14" font-weight="700" lengthAdjust="spacing" textLength="148.6064" x="386.9468" y="39.2305">Primera etapa del TFG</text></g><!--class semestre_tfg--><g class="entity" data-qualified-name="semestre_tfg" data-source-line="7" id="ent0001"><rect fill="#F1F1F1" height="138.6904" rx="2.5" ry="2.5" style="stroke:#181818;stroke-width:0.5;" width="214.3506" x="435.5" y="65.1973"/><text fill="#000000" font-family="sans-serif" font-size="14" lengthAdjust="spacing" textLength="80.9238" x="502.2134" y="83.3291">semestre_tfg</text><line style="stroke:#181818;stroke-width:0.5;" x1="436.5" x2="648.8506" y1="91.2959" y2="91.2959"/><g data-visibility-modifier="IE_MANDATORY"><ellipse cx="446.5" cy="104.8452" fill="#000000" rx="3" ry="3" style="stroke:#000000;stroke-width:1;"/></g><text fill="#000000" font-family="sans-serif" font-size="14" lengthAdjust="spacing" textLength="87.1719" x="455.5" y="108.4277">id : uuid &#171;PK&#187;</text><line style="stroke:#181818;stroke-width:1;" x1="436.5" x2="648.8506" y1="115.3945" y2="115.3945"/><text fill="#000000" font-family="sans-serif" font-size="14" lengthAdjust="spacing" textLength="105.0547" x="441.5" y="132.5264">periodo : varchar</text><text fill="#000000" font-family="sans-serif" font-size="14" lengthAdjust="spacing" textLength="170.4541" x="441.5" y="148.625">fecha_reunion_inicial : date</text><text fill="#000000" font-family="sans-serif" font-size="14" lengthAdjust="spacing" textLength="189.8818" x="441.5" y="164.7236">fecha_cierre_inscripcion : date</text><text fill="#000000" font-family="sans-serif" font-size="14" lengthAdjust="spacing" textLength="201.585" x="441.5" y="180.8223">fecha_publicacion_tutores : date</text><text fill="#000000" font-family="sans-serif" font-size="14" lengthAdjust="spacing" textLength="202.3506" x="441.5" y="196.9209">fecha_limite_anteproyecto : date</text></g><!--class estudiante--><g class="entity" data-qualified-name="estudiante" data-source-line="16" id="ent0002"><rect fill="#F1F1F1" height="90.3945" rx="2.5" ry="2.5" style="stroke:#181818;stroke-width:0.5;" width="117.8203" x="50.5" y="272.6973"/><text fill="#000000" font-family="sans-serif" font-size="14" lengthAdjust="spacing" textLength="64.6064" x="77.1069" y="290.8291">estudiante</text><line style="stroke:#181818;stroke-width:0.5;" x1="51.5" x2="167.3203" y1="298.7959" y2="298.7959"/><g data-visibility-modifier="IE_MANDATORY"><ellipse cx="61.5" cy="312.3452" fill="#000000" rx="3" ry="3" style="stroke:#000000;stroke-width:1;"/></g><text fill="#000000" font-family="sans-serif" font-size="14" lengthAdjust="spacing" textLength="87.1719" x="70.5" y="315.9277">id : uuid &#171;PK&#187;</text><line style="stroke:#181818;stroke-width:1;" x1="51.5" x2="167.3203" y1="322.8945" y2="322.8945"/><text fill="#000000" font-family="sans-serif" font-size="14" lengthAdjust="spacing" textLength="105.8203" x="56.5" y="340.0264">nombre : varchar</text><text fill="#000000" font-family="sans-serif" font-size="14" lengthAdjust="spacing" textLength="98.0342" x="56.5" y="356.125">correo : varchar</text></g><!--class tutor--><g class="entity" data-qualified-name="tutor" data-source-line="22" id="ent0003"><rect fill="#F1F1F1" height="90.3945" rx="2.5" ry="2.5" style="stroke:#181818;stroke-width:0.5;" width="117.8203" x="674.5" y="89.6973"/><text fill="#000000" font-family="sans-serif" font-size="14" lengthAdjust="spacing" textLength="28.0137" x="719.4033" y="107.8291">tutor</text><line style="stroke:#181818;stroke-width:0.5;" x1="675.5" x2="791.3203" y1="115.7959" y2="115.7959"/><g data-visibility-modifier="IE_MANDATORY"><ellipse cx="685.5" cy="129.3452" fill="#000000" rx="3" ry="3" style="stroke:#000000;stroke-width:1;"/></g><text fill="#000000" font-family="sans-serif" font-size="14" lengthAdjust="spacing" textLength="87.1719" x="694.5" y="132.9277">id : uuid &#171;PK&#187;</text><line style="stroke:#181818;stroke-width:1;" x1="675.5" x2="791.3203" y1="139.8945" y2="139.8945"/><text fill="#000000" font-family="sans-serif" font-size="14" lengthAdjust="spacing" textLength="105.8203" x="680.5" y="157.0264">nombre : varchar</text><text fill="#000000" font-family="sans-serif" font-size="14" lengthAdjust="spacing" textLength="98.0342" x="680.5" y="173.125">correo : varchar</text></g><!--class grupo_tfg--><g class="entity" data-qualified-name="grupo_tfg" data-source-line="28" id="ent0004"><rect fill="#F1F1F1" height="154.7891" rx="2.5" ry="2.5" style="stroke:#181818;stroke-width:0.5;" width="196.4131" x="444.5" y="240.1973"/><text fill="#000000" font-family="sans-serif" font-size="14" lengthAdjust="spacing" textLength="59.1582" x="513.1274" y="258.3291">grupo_tfg</text><line style="stroke:#181818;stroke-width:0.5;" x1="445.5" x2="639.9131" y1="266.2959" y2="266.2959"/><g data-visibility-modifier="IE_MANDATORY"><ellipse cx="455.5" cy="279.8452" fill="#000000" rx="3" ry="3" style="stroke:#000000;stroke-width:1;"/></g><text fill="#000000" font-family="sans-serif" font-size="14" lengthAdjust="spacing" textLength="87.1719" x="464.5" y="283.4277">id : uuid &#171;PK&#187;</text><line style="stroke:#181818;stroke-width:1;" x1="445.5" x2="639.9131" y1="290.3945" y2="290.3945"/><text fill="#000000" font-family="sans-serif" font-size="14" lengthAdjust="spacing" textLength="151.7441" x="450.5" y="307.5264">semestre_id : uuid &#171;FK&#187;</text><text fill="#000000" font-family="sans-serif" font-size="14" lengthAdjust="spacing" textLength="174.3369" x="450.5" y="323.625">tutor_id : uuid &#171;FK nullable&#187;</text><text fill="#000000" font-family="sans-serif" font-size="14" lengthAdjust="spacing" textLength="150.1855" x="450.5" y="339.7236">tema_tentativo : varchar</text><text fill="#000000" font-family="sans-serif" font-size="14" lengthAdjust="spacing" textLength="157.1924" x="450.5" y="355.8223">medio_contacto : varchar</text><text fill="#000000" font-family="sans-serif" font-size="14" lengthAdjust="spacing" textLength="100.3857" x="450.5" y="371.9209">estado : varchar</text><text fill="#000000" font-family="sans-serif" font-size="14" lengthAdjust="spacing" textLength="184.4131" x="450.5" y="388.0195">fecha_inscripcion : timestamp</text></g><!--class grupo_integrante--><g class="entity" data-qualified-name="grupo_integrante" data-source-line="38" id="ent0005"><rect fill="#F1F1F1" height="74.2959" rx="2.5" ry="2.5" style="stroke:#181818;stroke-width:0.5;" width="207.3438" x="6" y="471.6973"/><text fill="#000000" font-family="sans-serif" font-size="14" lengthAdjust="spacing" textLength="105.8613" x="56.7412" y="489.8291">grupo_integrante</text><line style="stroke:#181818;stroke-width:0.5;" x1="7" x2="212.3438" y1="497.7959" y2="497.7959"/><g data-visibility-modifier="IE_MANDATORY"><ellipse cx="17" cy="511.3452" fill="#000000" rx="3" ry="3" style="stroke:#000000;stroke-width:1;"/></g><text fill="#000000" font-family="sans-serif" font-size="14" lengthAdjust="spacing" textLength="152.5439" x="26" y="514.9277">grupo_id : uuid &#171;PK,FK&#187;</text><g data-visibility-modifier="IE_MANDATORY"><ellipse cx="17" cy="527.4438" fill="#000000" rx="3" ry="3" style="stroke:#000000;stroke-width:1;"/></g><text fill="#000000" font-family="sans-serif" font-size="14" lengthAdjust="spacing" textLength="181.3438" x="26" y="531.0264">estudiante_id : uuid &#171;PK,FK&#187;</text><line style="stroke:#181818;stroke-width:0.5;" x1="7" x2="212.3438" y1="537.9932" y2="537.9932"/></g><!--class anteproyecto--><g class="entity" data-qualified-name="anteproyecto" data-source-line="42" id="ent0006"><rect fill="#F1F1F1" height="154.7891" rx="2.5" ry="2.5" style="stroke:#181818;stroke-width:0.5;" width="187.9092" x="231.5" y="431.1973"/><text fill="#000000" font-family="sans-serif" font-size="14" lengthAdjust="spacing" textLength="80.9443" x="284.9824" y="449.3291">anteproyecto</text><line style="stroke:#181818;stroke-width:0.5;" x1="232.5" x2="418.4092" y1="457.2959" y2="457.2959"/><g data-visibility-modifier="IE_MANDATORY"><ellipse cx="242.5" cy="470.8452" fill="#000000" rx="3" ry="3" style="stroke:#000000;stroke-width:1;"/></g><text fill="#000000" font-family="sans-serif" font-size="14" lengthAdjust="spacing" textLength="87.1719" x="251.5" y="474.4277">id : uuid &#171;PK&#187;</text><line style="stroke:#181818;stroke-width:1;" x1="232.5" x2="418.4092" y1="481.3945" y2="481.3945"/><text fill="#000000" font-family="sans-serif" font-size="14" lengthAdjust="spacing" textLength="175.9092" x="237.5" y="498.5264">grupo_id : uuid &#171;FK unique&#187;</text><text fill="#000000" font-family="sans-serif" font-size="14" lengthAdjust="spacing" textLength="87.9238" x="237.5" y="514.625">titulo : varchar</text><text fill="#000000" font-family="sans-serif" font-size="14" lengthAdjust="spacing" textLength="92.5996" x="237.5" y="530.7236">problema : text</text><text fill="#000000" font-family="sans-serif" font-size="14" lengthAdjust="spacing" textLength="136.9785" x="237.5" y="546.8223">objetivo_general : text</text><text fill="#000000" font-family="sans-serif" font-size="14" lengthAdjust="spacing" textLength="82.4893" x="237.5" y="562.9209">alcance : text</text><text fill="#000000" font-family="sans-serif" font-size="14" lengthAdjust="spacing" textLength="165.7578" x="237.5" y="579.0195">fecha_entrega : timestamp</text></g><!--class observacion--><g class="entity" data-qualified-name="observacion" data-source-line="52" id="ent0007"><rect fill="#F1F1F1" height="138.6904" rx="2.5" ry="2.5" style="stroke:#181818;stroke-width:0.5;" width="176.958" x="666" y="439.1973"/><text fill="#000000" font-family="sans-serif" font-size="14" lengthAdjust="spacing" textLength="75.4893" x="716.7344" y="457.3291">observacion</text><line style="stroke:#181818;stroke-width:0.5;" x1="667" x2="841.958" y1="465.2959" y2="465.2959"/><g data-visibility-modifier="IE_MANDATORY"><ellipse cx="677" cy="478.8452" fill="#000000" rx="3" ry="3" style="stroke:#000000;stroke-width:1;"/></g><text fill="#000000" font-family="sans-serif" font-size="14" lengthAdjust="spacing" textLength="87.1719" x="686" y="482.4277">id : uuid &#171;PK&#187;</text><line style="stroke:#181818;stroke-width:1;" x1="667" x2="841.958" y1="489.3945" y2="489.3945"/><text fill="#000000" font-family="sans-serif" font-size="14" lengthAdjust="spacing" textLength="129.9785" x="672" y="506.5264">grupo_id : uuid &#171;FK&#187;</text><text fill="#000000" font-family="sans-serif" font-size="14" lengthAdjust="spacing" textLength="122.1855" x="672" y="522.625">tutor_id : uuid &#171;FK&#187;</text><text fill="#000000" font-family="sans-serif" font-size="14" lengthAdjust="spacing" textLength="64.5859" x="672" y="538.7236">texto : text</text><text fill="#000000" font-family="sans-serif" font-size="14" lengthAdjust="spacing" textLength="164.958" x="672" y="554.8223">fecha_registro : timestamp</text><text fill="#000000" font-family="sans-serif" font-size="14" lengthAdjust="spacing" textLength="134.627" x="672" y="570.9209">responsable : varchar</text></g><!--class autorizacion_excepcional--><g class="entity" data-qualified-name="autorizacion_excepcional" data-source-line="61" id="ent0008"><rect fill="#F1F1F1" height="122.5918" rx="2.5" ry="2.5" style="stroke:#181818;stroke-width:0.5;" width="209.6543" x="437.5" y="447.1973"/><text fill="#000000" font-family="sans-serif" font-size="14" lengthAdjust="spacing" textLength="157.2129" x="463.7207" y="465.3291">autorizacion_excepcional</text><line style="stroke:#181818;stroke-width:0.5;" x1="438.5" x2="646.1543" y1="473.2959" y2="473.2959"/><g data-visibility-modifier="IE_MANDATORY"><ellipse cx="448.5" cy="486.8452" fill="#000000" rx="3" ry="3" style="stroke:#000000;stroke-width:1;"/></g><text fill="#000000" font-family="sans-serif" font-size="14" lengthAdjust="spacing" textLength="87.1719" x="457.5" y="490.4277">id : uuid &#171;PK&#187;</text><line style="stroke:#181818;stroke-width:1;" x1="438.5" x2="646.1543" y1="497.3945" y2="497.3945"/><text fill="#000000" font-family="sans-serif" font-size="14" lengthAdjust="spacing" textLength="175.9092" x="443.5" y="514.5264">grupo_id : uuid &#171;FK unique&#187;</text><text fill="#000000" font-family="sans-serif" font-size="14" lengthAdjust="spacing" textLength="75.4688" x="443.5" y="530.625">motivo : text</text><text fill="#000000" font-family="sans-serif" font-size="14" lengthAdjust="spacing" textLength="193.7646" x="443.5" y="546.7236">fecha_autorizacion : timestamp</text><text fill="#000000" font-family="sans-serif" font-size="14" lengthAdjust="spacing" textLength="197.6543" x="443.5" y="562.8223">responsable_comision : varchar</text></g><g class="entity" data-qualified-name="GMN17" data-source-line="80" id="ent0018"><path d="M171.5,622.1973 L171.5,647.146 A0,0 0 0 0 171.5,647.146 L913.7397,647.146 A0,0 0 0 0 913.7397,647.146 L913.7397,632.1973 L903.7397,622.1973 L546.5,622.1973 L542.5,570.2443 L538.5,622.1973 L171.5,622.1973 A0,0 0 0 0 171.5,622.1973" fill="#FEFFDD" style="stroke:#181818;stroke-width:0.5;"/><path d="M903.7397,622.1973 L903.7397,632.1973 L913.7397,632.1973 L903.7397,622.1973" fill="#FEFFDD" style="stroke:#181818;stroke-width:0.5;"/><text fill="#000000" font-family="sans-serif" font-size="13" lengthAdjust="spacing" textLength="721.2397" x="177.5" y="639.3911">Integridad: unique(semestre_id, estudiante_id) se implementa mediante validaci&#243;n sobre grupo_integrante unido a grupo_tfg.</text></g><g class="link" data-entity-1="ent0001" data-entity-2="ent0004" data-link-type="crowfoot" id="lnk9"><line style="stroke:#181818;stroke-width:1;" x1="538.5" x2="546.5" y1="208.3837" y2="208.3837"/><line style="stroke:#181818;stroke-width:1;" x1="538.5" x2="546.5" y1="211.3837" y2="211.3837"/><line style="stroke:#181818;stroke-width:1;" x1="542.5" x2="542.5" y1="212.3837" y2="204.3837"/><line style="stroke:#181818;stroke-width:1;" x1="542.5" x2="548.5" y1="232.1906" y2="240.1906"/><line style="stroke:#181818;stroke-width:1;" x1="542.5" x2="536.5" y1="232.1906" y2="240.1906"/><line style="stroke:#181818;stroke-width:1;" x1="542.5" x2="542.5" y1="232.1906" y2="240.1906"/><ellipse cx="542.5" cy="226.1906" fill="none" rx="4" ry="4" style="stroke:#181818;stroke-width:1;"/><path d="M542.5,212.3837 C542.5,224.0845 542.5,210.3026 542.5,222.1906" fill="none" style="stroke:#181818;stroke-width:1;"/></g><g class="link" data-entity-1="ent0003" data-entity-2="ent0004" data-link-type="crowfoot" id="lnk10"><line style="stroke:#181818;stroke-width:1;" x1="681.1213" x2="686.6241" y1="179.8228" y2="185.6297"/><line style="stroke:#181818;stroke-width:1;" x1="678.9438" x2="684.4466" y1="181.8864" y2="187.6932"/><line style="stroke:#181818;stroke-width:1;" x1="680.9693" x2="686.7761" y1="185.4776" y2="179.9748"/><line style="stroke:#181818;stroke-width:1;" x1="629.1707" x2="627.4909" y1="234.5643" y2="244.4223"/><line style="stroke:#181818;stroke-width:1;" x1="629.1707" x2="619.2367" y1="234.5643" y2="235.712"/><line style="stroke:#181818;stroke-width:1;" x1="629.1707" x2="623.3638" y1="234.5643" y2="240.0671"/><ellipse cx="633.5258" cy="230.4372" fill="none" rx="4" ry="4" style="stroke:#181818;stroke-width:1;"/><path d="M680.9693,185.4776 C661.8632,203.5834 658.0688,207.1792 636.4292,227.6858" fill="none" style="stroke:#181818;stroke-width:1;"/></g><g class="link" data-entity-1="ent0004" data-entity-2="ent0005" data-link-type="crowfoot" id="lnk11"><line style="stroke:#181818;stroke-width:1;" x1="439.2799" x2="441.6137" y1="343.3819" y2="351.034"/><line style="stroke:#181818;stroke-width:1;" x1="436.4104" x2="438.7442" y1="344.2571" y2="351.9091"/><line style="stroke:#181818;stroke-width:1;" x1="436.6208" x2="444.2728" y1="348.3748" y2="346.0411"/><line style="stroke:#181818;stroke-width:1;" x1="163.5825" x2="160.5069" y1="466.8995" y2="476.4148"/><line style="stroke:#181818;stroke-width:1;" x1="163.5825" x2="153.5867" y1="466.8995" y2="466.6112"/><line style="stroke:#181818;stroke-width:1;" x1="163.5825" x2="157.0468" y1="466.8995" y2="471.513"/><line style="stroke:#181818;stroke-width:1;" x1="167.5232" x2="162.9097" y1="469.014" y2="462.4783"/><path d="M436.6208,348.3748 C371.9023,368.1133 293.8963,395.236 222.5,431.1973 C199.9662,442.5472 183.1601,453.0799 163.5825,466.8995" fill="none" style="stroke:#181818;stroke-width:1;"/></g><g class="link" data-entity-1="ent0002" data-entity-2="ent0005" data-link-type="crowfoot" id="lnk12"><line style="stroke:#181818;stroke-width:1;" x1="105.5" x2="113.5" y1="367.0094" y2="367.0094"/><line style="stroke:#181818;stroke-width:1;" x1="105.5" x2="113.5" y1="370.0094" y2="370.0094"/><line style="stroke:#181818;stroke-width:1;" x1="109.5" x2="109.5" y1="371.0094" y2="363.0094"/><line style="stroke:#181818;stroke-width:1;" x1="109.5" x2="115.5" y1="463.5784" y2="471.5784"/><line style="stroke:#181818;stroke-width:1;" x1="109.5" x2="103.5" y1="463.5784" y2="471.5784"/><line style="stroke:#181818;stroke-width:1;" x1="109.5" x2="109.5" y1="463.5784" y2="471.5784"/><ellipse cx="109.5" cy="457.5784" fill="none" rx="4" ry="4" style="stroke:#181818;stroke-width:1;"/><path d="M109.5,371.0094 C109.5,404.0687 109.5,422.6724 109.5,453.5784" fill="none" style="stroke:#181818;stroke-width:1;"/></g><g class="link" data-entity-1="ent0004" data-entity-2="ent0006" data-link-type="association" id="lnk13"><line style="stroke:#181818;stroke-width:1;" x1="448.9072" x2="454.1614" y1="394.9091" y2="400.9418"/><line style="stroke:#181818;stroke-width:1;" x1="446.6449" x2="451.8992" y1="396.8795" y2="402.9121"/><line style="stroke:#181818;stroke-width:1;" x1="448.518" x2="454.5506" y1="400.5526" y2="395.2983"/><line style="stroke:#181818;stroke-width:1;" x1="421.8695" x2="413.5746" y1="423.7625" y2="430.9871"/><ellipse cx="421.8695" cy="423.7625" fill="none" rx="4" ry="4" style="stroke:#181818;stroke-width:1;"/><line style="stroke:#181818;stroke-width:1;" x1="419.2181" x2="413.9638" y1="431.3763" y2="425.3437"/><path d="M448.518,400.5526 C435.0073,412.3199 438.3992,409.3657 424.8858,421.1354" fill="none" style="stroke:#181818;stroke-width:1;"/></g><g class="link" data-entity-1="ent0004" data-entity-2="ent0007" data-link-type="crowfoot" id="lnk14"><line style="stroke:#181818;stroke-width:1;" x1="628.7468" x2="634.0705" y1="400.9459" y2="394.9744"/><line style="stroke:#181818;stroke-width:1;" x1="630.9861" x2="636.3098" y1="402.9423" y2="396.9708"/><line style="stroke:#181818;stroke-width:1;" x1="634.3944" x2="628.4229" y1="400.622" y2="395.2983"/><line style="stroke:#181818;stroke-width:1;" x1="671.362" x2="681.3263" y1="433.579" y2="434.424"/><line style="stroke:#181818;stroke-width:1;" x1="671.362" x2="673.3408" y1="433.579" y2="443.3813"/><line style="stroke:#181818;stroke-width:1;" x1="671.362" x2="677.3335" y1="433.579" y2="438.9026"/><ellipse cx="666.8834" cy="429.5863" fill="none" rx="4" ry="4" style="stroke:#181818;stroke-width:1;"/><path d="M634.3944,400.622 C650.578,415.0498 648.0022,412.7535 663.8977,426.9244" fill="none" style="stroke:#181818;stroke-width:1;"/></g><g class="link" data-entity-1="ent0003" data-entity-2="ent0007" data-link-type="crowfoot" id="lnk15"><line style="stroke:#181818;stroke-width:1;" x1="732.2232" x2="740.2105" y1="184.0505" y2="183.5996"/><line style="stroke:#181818;stroke-width:1;" x1="732.3923" x2="740.3796" y1="187.0457" y2="186.5948"/><line style="stroke:#181818;stroke-width:1;" x1="736.4423" x2="735.9914" y1="187.8187" y2="179.8314"/><line style="stroke:#181818;stroke-width:1;" x1="750.1708" x2="756.6122" y1="431.0086" y2="438.6577"/><line style="stroke:#181818;stroke-width:1;" x1="750.1708" x2="744.6312" y1="431.0086" y2="439.3341"/><line style="stroke:#181818;stroke-width:1;" x1="750.1708" x2="750.6217" y1="431.0086" y2="438.9959"/><ellipse cx="749.8326" cy="425.0182" fill="none" rx="4" ry="4" style="stroke:#181818;stroke-width:1;"/><path d="M736.4423,187.8187 C740.0603,251.9074 745.3359,345.362 749.6072,421.0245" fill="none" style="stroke:#181818;stroke-width:1;"/></g><g class="link" data-entity-1="ent0004" data-entity-2="ent0008" data-link-type="association" id="lnk16"><line style="stroke:#181818;stroke-width:1;" x1="538.5" x2="546.5" y1="399.2983" y2="399.2983"/><line style="stroke:#181818;stroke-width:1;" x1="538.5" x2="546.5" y1="402.2983" y2="402.2983"/><line style="stroke:#181818;stroke-width:1;" x1="542.5" x2="542.5" y1="403.2983" y2="395.2983"/><line style="stroke:#181818;stroke-width:1;" x1="542.5" x2="542.5" y1="435.9416" y2="446.9416"/><ellipse cx="542.5" cy="435.9416" fill="none" rx="4" ry="4" style="stroke:#181818;stroke-width:1;"/><line style="stroke:#181818;stroke-width:1;" x1="546.5" x2="538.5" y1="442.9416" y2="442.9416"/><path d="M542.5,403.2983 C542.5,420.4889 542.5,415.4997 542.5,431.9416" fill="none" style="stroke:#181818;stroke-width:1;"/></g><?plantuml-src hLLBZXD13DttASmEHXCMYDLeD2iq2B6P1KkabhlQqp5KbPlgwf2G8748Ri8Hk0admVsPT5S-W83DP6I_k9xVivr7TS3A8LZSI1kXSHJHOxRaai1mC9QovZtx6WCwiEmfRce22N4fiqIpn58-ig_W7cr3MUHe2PuzXnzVli8Bnaf12EGZbrWk0baq_FsRV-ll0ZiAcefO8vHauStjoopha7433JbgOg0ytbUmpG0kW4kuWhRLZ-lhkzStDnfSBFHFJO6b54skC9Wb1etTa_wJ1sezYy_Pis6qYYWnqZvjc8A-mBunWMkZo4D4tHQM3NQfFBPH0ZM74CkE8-Ne8zL1DcIYF40-FpIZdRGbTv3VjEB55O6IJementbp-wezeVzPi0fjBNyW-DwREU1s0FIa3XBWMskni3GWo64UzKcCl4fTSrIov4OqDyWufVH1FEbnwbxaZXgw-h0hLl5r52SBnd3IukNOnCNCiPEGVV74zb-hTloWAgFp-Q4TTU7OshH3hQogwVfeOxIE6f7Y7NMovHLvNHuxPT0Qz8Qcm22FyWnKuMbff6WehFhn_WloP_qURLxt5YPib0hhv4X21q3NgXRVT2DoQYwnUuC_3Mj8QqEzszhylmdkP1p0XEByiVCqTKWTDmDaufibLsktMonaEsrLDYpiKNXQkowrsnvDR3Qx7yctPv2qYEoIoJpCRkVEfxJcYUEQPup8CY_AhP0OnMMlUbRTkRyQvNuyknYNwMuzqMi2x6eTy-uaz2UWRtI5LalqlnNGI7V4ZXPPY-j9m4dAfpen9NHSVW80?></g></svg>