<svg xmlns="http://www.w3.org/2000/svg" xmlns:xlink="http://www.w3.org/1999/xlink" contentStyleType="text/css" data-diagram-type="ACTIVITY" height="2249px" preserveAspectRatio="none" style="width:596px;height:2249px;background:#FFFFFF;" version="1.1" viewBox="0 0 596 2249" width="596px" zoomAndPan="magnify"><?plantuml $version$?><defs/><g><g class="title" data-source-line="4"><text fill="#000000" font-family="sans-serif" font-size="14" font-weight="700" lengthAdjust="spacing" textLength="383.5781" x="105.627" y="33.1318">25 &#8212; Diagrama de actividades del proceso inicial del TFG</text><text fill="#000000" font-family="sans-serif" font-size="14" font-weight="700" lengthAdjust="spacing" textLength="475.3232" x="59.7544" y="49.2305">RF-01..RF-12; RNF-01..RNF-06 &#8212; hasta entrega formal del anteproyecto</text></g><ellipse cx="320.0874" cy="78.1973" fill="#222222" rx="10" ry="10" style="stroke:#222222;stroke-width:1;"/><rect fill="none" height="81.8975" style="stroke:#000000;stroke-width:1.5;" width="228.0801" x="206.0474" y="98.1973"/><path d="M325.7437,98.1973 L325.7437,107.2959 L315.7437,117.2959 L206.0474,117.2959" fill="none" style="stroke:#000000;stroke-width:1.5;"/><text fill="#000000" font-family="sans-serif" font-size="14" lengthAdjust="spacing" textLength="109.6963" x="209.0474" y="112.3291">Comisi&#243;n de TFG</text><rect fill="#F1F1F1" height="33.7988" rx="12.5" ry="12.5" style="stroke:#181818;stroke-width:0.5;" width="208.0801" x="216.0474" y="134.2959"/><text fill="#000000" font-family="sans-serif" font-size="12" lengthAdjust="spacing" textLength="188.0801" x="226.0474" y="155.5518">Configurar semestre y fechas clave</text><rect fill="none" height="81.8975" style="stroke:#000000;stroke-width:1.5;" width="184.0645" x="228.0552" y="190.0947"/><path d="M288.6274,190.0947 L288.6274,199.1934 L278.6274,209.1934 L228.0552,209.1934" fill="none" style="stroke:#000000;stroke-width:1.5;"/><text fill="#000000" font-family="sans-serif" font-size="14" lengthAdjust="spacing" textLength="50.5723" x="231.0552" y="204.2266">Sistema</text><rect fill="#F1F1F1" height="33.7988" rx="12.5" ry="12.5" style="stroke:#181818;stroke-width:0.5;" width="164.0645" x="238.0552" y="226.1934"/><text fill="#000000" font-family="sans-serif" font-size="12" lengthAdjust="spacing" textLength="144.0645" x="248.0552" y="247.4492">Publicar cronograma inicial</text><rect fill="none" height="135.6963" style="stroke:#000000;stroke-width:1.5;" width="348.168" x="146.0034" y="281.9922"/><path d="M222.1616,281.9922 L222.1616,291.0908 L212.1616,301.0908 L146.0034,301.0908" fill="none" style="stroke:#000000;stroke-width:1.5;"/><text fill="#000000" font-family="sans-serif" font-size="14" lengthAdjust="spacing" textLength="66.1582" x="149.0034" y="296.124">Estudiante</text><rect fill="#F1F1F1" height="33.7988" rx="12.5" ry="12.5" style="stroke:#181818;stroke-width:0.5;" width="190.0918" x="225.0415" y="318.0908"/><text fill="#000000" font-family="sans-serif" font-size="12" lengthAdjust="spacing" textLength="170.0918" x="235.0415" y="339.3467">Consultar etapas y fechas clave</text><rect fill="#F1F1F1" height="33.7988" rx="12.5" ry="12.5" style="stroke:#181818;stroke-width:0.5;" width="328.168" x="156.0034" y="371.8896"/><text fill="#000000" font-family="sans-serif" font-size="12" lengthAdjust="spacing" textLength="308.168" x="166.0034" y="393.1455">Registrar grupo con integrantes, tema tentativo y contacto</text><rect fill="none" height="223.4951" style="stroke:#000000;stroke-width:1.5;" width="414.6836" x="113.2993" y="427.6885"/><path d="M173.8716,427.6885 L173.8716,436.7871 L163.8716,446.7871 L113.2993,446.7871" fill="none" style="stroke:#000000;stroke-width:1.5;"/><text fill="#000000" font-family="sans-serif" font-size="14" lengthAdjust="spacing" textLength="50.5723" x="116.2993" y="441.8203">Sistema</text><rect fill="#F1F1F1" height="33.7988" rx="12.5" ry="12.5" style="stroke:#181818;stroke-width:0.5;" width="393.5762" x="123.2993" y="463.7871"/><text fill="#000000" font-family="sans-serif" font-size="12" lengthAdjust="spacing" textLength="373.5762" x="133.2993" y="485.043">Validar datos obligatorios, cantidad de integrantes y pertenencia &#250;nica</text><polygon fill="#F1F1F1" points="271.4817,517.5859,368.6931,517.5859,380.6931,529.5859,368.6931,541.5859,271.4817,541.5859,259.4817,529.5859,271.4817,517.5859" style="stroke:#181818;stroke-width:0.5;stroke-linejoin:miter;stroke-miterlimit:10;"/><text fill="#000000" font-family="sans-serif" font-size="11" lengthAdjust="spacing" textLength="97.2114" x="271.4817" y="533.5793">&#191;Inscripci&#243;n v&#225;lida?</text><text fill="#000000" font-family="sans-serif" font-size="11" lengthAdjust="spacing" textLength="8.5562" x="250.9255" y="527.2549">s&#237;</text><text fill="#000000" font-family="sans-serif" font-size="11" lengthAdjust="spacing" textLength="12.2354" x="380.6931" y="527.2549">no</text><rect fill="#F1F1F1" height="33.7988" rx="12.5" ry="12.5" style="stroke:#181818;stroke-width:0.5;" width="102.7051" x="172.2026" y="551.5859"/><text fill="#000000" font-family="sans-serif" font-size="12" lengthAdjust="spacing" textLength="82.7051" x="182.2026" y="572.8418">Registrar grupo</text><rect fill="#F1F1F1" height="33.7988" rx="12.5" ry="12.5" style="stroke:#181818;stroke-width:0.5;" width="163.4023" x="141.854" y="605.3848"/><text fill="#000000" font-family="sans-serif" font-size="12" lengthAdjust="spacing" textLength="143.4023" x="151.854" y="626.6406">Cambiar estado a Inscripto</text><rect fill="#F1F1F1" height="33.7988" rx="12.5" ry="12.5" style="stroke:#181818;stroke-width:0.5;" width="182.7266" x="325.2563" y="551.5859"/><text fill="#000000" font-family="sans-serif" font-size="12" lengthAdjust="spacing" textLength="162.7266" x="335.2563" y="572.8418">Informar errores de inscripci&#243;n</text><ellipse cx="416.6196" cy="616.3848" fill="none" rx="11" ry="11" style="stroke:#222222;stroke-width:1;"/><ellipse cx="416.6196" cy="616.3848" fill="#222222" rx="6" ry="6" style="stroke:#222222;stroke-width:1;"/><rect fill="none" height="135.6963" style="stroke:#000000;stroke-width:1.5;" width="282.8242" x="178.6753" y="661.1836"/><path d="M298.3716,661.1836 L298.3716,670.2822 L288.3716,680.2822 L178.6753,680.2822" fill="none" style="stroke:#000000;stroke-width:1.5;"/><text fill="#000000" font-family="sans-serif" font-size="14" lengthAdjust="spacing" textLength="109.6963" x="181.6753" y="675.3154">Comisi&#243;n de TFG</text><rect fill="#F1F1F1" height="33.7988" rx="12.5" ry="12.5" style="stroke:#181818;stroke-width:0.5;" width="165.4004" x="237.3872" y="697.2822"/><text fill="#000000" font-family="sans-serif" font-size="12" lengthAdjust="spacing" textLength="145.4004" x="247.3872" y="718.5381">Consultar grupos inscriptos</text><rect fill="#F1F1F1" height="33.7988" rx="12.5" ry="12.5" style="stroke:#181818;stroke-width:0.5;" width="262.8242" x="188.6753" y="751.0811"/><text fill="#000000" font-family="sans-serif" font-size="12" lengthAdjust="spacing" textLength="242.8242" x="198.6753" y="772.3369">Asignar tutor antes de la fecha de publicaci&#243;n</text><rect fill="none" height="135.6963" style="stroke:#000000;stroke-width:1.5;" width="230.0957" x="205.0396" y="806.8799"/><path d="M265.6118,806.8799 L265.6118,815.9785 L255.6118,825.9785 L205.0396,825.9785" fill="none" style="stroke:#000000;stroke-width:1.5;"/><text fill="#000000" font-family="sans-serif" font-size="14" lengthAdjust="spacing" textLength="50.5723" x="208.0396" y="821.0117">Sistema</text><rect fill="#F1F1F1" height="33.7988" rx="12.5" ry="12.5" style="stroke:#181818;stroke-width:0.5;" width="210.0957" x="215.0396" y="842.9785"/><text fill="#000000" font-family="sans-serif" font-size="12" lengthAdjust="spacing" textLength="190.0957" x="225.0396" y="864.2344">Registrar tutor, fecha y responsable</text><rect fill="#F1F1F1" height="33.7988" rx="12.5" ry="12.5" style="stroke:#181818;stroke-width:0.5;" width="198.1016" x="221.0366" y="896.7773"/><text fill="#000000" font-family="sans-serif" font-size="12" lengthAdjust="spacing" textLength="178.1016" x="231.0366" y="918.0332">Cambiar estado a Tutor asignado</text><rect fill="none" height="81.8975" style="stroke:#000000;stroke-width:1.5;" width="188.0898" x="226.0425" y="952.5762"/><path d="M345.7388,952.5762 L345.7388,961.6748 L335.7388,971.6748 L226.0425,971.6748" fill="none" style="stroke:#000000;stroke-width:1.5;"/><text fill="#000000" font-family="sans-serif" font-size="14" lengthAdjust="spacing" textLength="109.6963" x="229.0425" y="966.708">Comisi&#243;n de TFG</text><rect fill="#F1F1F1" height="33.7988" rx="12.5" ry="12.5" style="stroke:#181818;stroke-width:0.5;" width="168.0898" x="236.0425" y="988.6748"/><text fill="#000000" font-family="sans-serif" font-size="12" lengthAdjust="spacing" textLength="148.0898" x="246.0425" y="1009.9307">Publicar asignaci&#243;n de tutor</text><rect fill="none" height="81.8975" style="stroke:#000000;stroke-width:1.5;" width="130.709" x="254.7329" y="1044.4736"/><path d="M315.3052,1044.4736 L315.3052,1053.5723 L305.3052,1063.5723 L254.7329,1063.5723" fill="none" style="stroke:#000000;stroke-width:1.5;"/><text fill="#000000" font-family="sans-serif" font-size="14" lengthAdjust="spacing" textLength="50.5723" x="257.7329" y="1058.6055">Sistema</text><rect fill="#F1F1F1" height="33.7988" rx="12.5" ry="12.5" style="stroke:#181818;stroke-width:0.5;" width="110.709" x="264.7329" y="1080.5723"/><text fill="#000000" font-family="sans-serif" font-size="12" lengthAdjust="spacing" textLength="90.709" x="274.7329" y="1101.8281">Notificar al grupo</text><rect fill="none" height="81.8975" style="stroke:#000000;stroke-width:1.5;" width="266.7754" x="186.6997" y="1136.3711"/><path d="M262.8579,1136.3711 L262.8579,1145.4697 L252.8579,1155.4697 L186.6997,1155.4697" fill="none" style="stroke:#000000;stroke-width:1.5;"/><text fill="#000000" font-family="sans-serif" font-size="14" lengthAdjust="spacing" textLength="66.1582" x="189.6997" y="1150.5029">Estudiante</text><rect fill="#F1F1F1" height="33.7988" rx="12.5" ry="12.5" style="stroke:#181818;stroke-width:0.5;" width="246.7754" x="196.6997" y="1172.4697"/><text fill="#000000" font-family="sans-serif" font-size="12" lengthAdjust="spacing" textLength="226.7754" x="206.6997" y="1193.7256">Cargar versi&#243;n preliminar del anteproyecto</text><rect fill="none" height="223.4951" style="stroke:#000000;stroke-width:1.5;" width="485.8955" x="45.6162" y="1228.2686"/><path d="M106.1885,1228.2686 L106.1885,1237.3672 L96.1885,1247.3672 L45.6162,1247.3672" fill="none" style="stroke:#000000;stroke-width:1.5;"/><text fill="#000000" font-family="sans-serif" font-size="14" lengthAdjust="spacing" textLength="50.5723" x="48.6162" y="1242.4004">Sistema</text><rect fill="#F1F1F1" height="33.7988" rx="12.5" ry="12.5" style="stroke:#181818;stroke-width:0.5;" width="288.8223" x="175.6763" y="1264.3672"/><text fill="#000000" font-family="sans-serif" font-size="12" lengthAdjust="spacing" textLength="268.8223" x="185.6763" y="1285.623">Validar t&#237;tulo, problema, objetivo general y alcance</text><polygon fill="#F1F1F1" points="250.3975,1318.166,389.7773,1318.166,401.7773,1330.166,389.7773,1342.166,250.3975,1342.166,238.3975,1330.166,250.3975,1318.166" style="stroke:#181818;stroke-width:0.5;stroke-linejoin:miter;stroke-miterlimit:10;"/><text fill="#000000" font-family="sans-serif" font-size="11" lengthAdjust="spacing" textLength="139.3799" x="250.3975" y="1334.1594">&#191;Datos m&#237;nimos completos?</text><text fill="#000000" font-family="sans-serif" font-size="11" lengthAdjust="spacing" textLength="8.5562" x="229.8413" y="1327.835">s&#237;</text><text fill="#000000" font-family="sans-serif" font-size="11" lengthAdjust="spacing" textLength="12.2354" x="401.7773" y="1327.835">no</text><rect fill="#F1F1F1" height="33.7988" rx="12.5" ry="12.5" style="stroke:#181818;stroke-width:0.5;" width="166.7129" x="118.3389" y="1352.166"/><text fill="#000000" font-family="sans-serif" font-size="12" lengthAdjust="spacing" textLength="146.7129" x="128.3389" y="1373.4219">Registrar versi&#243;n preliminar</text><rect fill="#F1F1F1" height="33.7988" rx="12.5" ry="12.5" style="stroke:#181818;stroke-width:0.5;" width="287.5039" x="57.9434" y="1405.9648"/><text fill="#000000" font-family="sans-serif" font-size="12" lengthAdjust="spacing" textLength="267.5039" x="67.9434" y="1427.2207">Cambiar estado a En elaboraci&#243;n de anteproyecto</text><rect fill="#F1F1F1" height="33.7988" rx="12.5" ry="12.5" style="stroke:#181818;stroke-width:0.5;" width="146.0645" x="365.4473" y="1352.166"/><text fill="#000000" font-family="sans-serif" font-size="12" lengthAdjust="spacing" textLength="126.0645" x="375.4473" y="1373.4219">Informar datos faltantes</text><ellipse cx="438.4795" cy="1416.9648" fill="none" rx="11" ry="11" style="stroke:#222222;stroke-width:1;"/><ellipse cx="438.4795" cy="1416.9648" fill="#222222" rx="6" ry="6" style="stroke:#222222;stroke-width:1;"/><rect fill="none" height="81.8975" style="stroke:#000000;stroke-width:1.5;" width="254.1133" x="193.0308" y="1461.7637"/><path d="M235.7065,1461.7637 L235.7065,1470.8623 L225.7065,1480.8623 L193.0308,1480.8623" fill="none" style="stroke:#000000;stroke-width:1.5;"/><text fill="#000000" font-family="sans-serif" font-size="14" lengthAdjust="spacing" textLength="32.6758" x="196.0308" y="1475.8955">Tutor</text><rect fill="#F1F1F1" height="33.7988" rx="12.5" ry="12.5" style="stroke:#181818;stroke-width:0.5;" width="234.1133" x="203.0308" y="1497.8623"/><text fill="#000000" font-family="sans-serif" font-size="12" lengthAdjust="spacing" textLength="214.1133" x="213.0308" y="1519.1182">Registrar observaciones de seguimiento</text><rect fill="none" height="81.8975" style="stroke:#000000;stroke-width:1.5;" width="285.4785" x="177.3481" y="1553.6611"/><path d="M237.9204,1553.6611 L237.9204,1562.7598 L227.9204,1572.7598 L177.3481,1572.7598" fill="none" style="stroke:#000000;stroke-width:1.5;"/><text fill="#000000" font-family="sans-serif" font-size="14" lengthAdjust="spacing" textLength="50.5723" x="180.3481" y="1567.793">Sistema</text><rect fill="#F1F1F1" height="33.7988" rx="12.5" ry="12.5" style="stroke:#181818;stroke-width:0.5;" width="265.4785" x="187.3481" y="1589.7598"/><text fill="#000000" font-family="sans-serif" font-size="12" lengthAdjust="spacing" textLength="245.4785" x="197.3481" y="1611.0156">Guardar observaci&#243;n con fecha y responsable</text><rect fill="none" height="135.6963" style="stroke:#000000;stroke-width:1.5;" width="293.4707" x="173.3521" y="1645.5586"/><path d="M249.5103,1645.5586 L249.5103,1654.6572 L239.5103,1664.6572 L173.3521,1664.6572" fill="none" style="stroke:#000000;stroke-width:1.5;"/><text fill="#000000" font-family="sans-serif" font-size="14" lengthAdjust="spacing" textLength="66.1582" x="176.3521" y="1659.6904">Estudiante</text><rect fill="#F1F1F1" height="33.7988" rx="12.5" ry="12.5" style="stroke:#181818;stroke-width:0.5;" width="273.4707" x="183.3521" y="1681.6572"/><text fill="#000000" font-family="sans-serif" font-size="12" lengthAdjust="spacing" textLength="253.4707" x="193.3521" y="1702.9131">Consultar estado, tutor, fechas y observaciones</text><rect fill="#F1F1F1" height="33.7988" rx="12.5" ry="12.5" style="stroke:#181818;stroke-width:0.5;" width="221.4395" x="209.3677" y="1735.4561"/><text fill="#000000" font-family="sans-serif" font-size="12" lengthAdjust="spacing" textLength="201.4395" x="219.3677" y="1756.7119">Entregar formalmente el anteproyecto</text><rect fill="none" height="253.4951" style="stroke:#000000;stroke-width:1.5;" width="489.5996" x="57.6162" y="1791.2549"/><path d="M118.1885,1791.2549 L118.1885,1800.3535 L108.1885,1810.3535 L57.6162,1810.3535" fill="none" style="stroke:#000000;stroke-width:1.5;"/><text fill="#000000" font-family="sans-serif" font-size="14" lengthAdjust="spacing" textLength="50.5723" x="60.6162" y="1805.3867">Sistema</text><rect fill="#F1F1F1" height="33.7988" rx="12.5" ry="12.5" style="stroke:#181818;stroke-width:0.5;" width="301.502" x="169.3364" y="1827.3535"/><text fill="#000000" font-family="sans-serif" font-size="12" lengthAdjust="spacing" textLength="281.502" x="179.3364" y="1848.6094">Verificar plazo de entrega o autorizaci&#243;n excepcional</text><polygon fill="#F1F1F1" points="269.3306,1881.1523,370.8442,1881.1523,382.8442,1893.1523,370.8442,1905.1523,269.3306,1905.1523,257.3306,1893.1523,269.3306,1881.1523" style="stroke:#181818;stroke-width:0.5;stroke-linejoin:miter;stroke-miterlimit:10;"/><text fill="#000000" font-family="sans-serif" font-size="11" lengthAdjust="spacing" textLength="101.5137" x="269.3306" y="1897.1458">&#191;Entrega habilitada?</text><text fill="#000000" font-family="sans-serif" font-size="11" lengthAdjust="spacing" textLength="8.5562" x="248.7744" y="1890.8213">s&#237;</text><text fill="#000000" font-family="sans-serif" font-size="11" lengthAdjust="spacing" textLength="12.2354" x="382.8442" y="1890.8213">no</text><rect fill="#F1F1F1" height="33.7988" rx="12.5" ry="12.5" style="stroke:#181818;stroke-width:0.5;" width="149.3867" x="125.9941" y="1915.1523"/><text fill="#000000" font-family="sans-serif" font-size="12" lengthAdjust="spacing" textLength="129.3867" x="135.9941" y="1936.4082">Registrar entrega formal</text><rect fill="#F1F1F1" height="33.7988" rx="12.5" ry="12.5" style="stroke:#181818;stroke-width:0.5;" width="246.1426" x="77.6162" y="1968.9512"/><text fill="#000000" font-family="sans-serif" font-size="12" lengthAdjust="spacing" textLength="226.1426" x="87.6162" y="1990.207">Cambiar estado a Anteproyecto entregado</text><rect fill="#F1F1F1" height="33.7988" rx="12.5" ry="12.5" style="stroke:#181818;stroke-width:0.5;" width="191.457" x="343.7588" y="1915.1523"/><text fill="#000000" font-family="sans-serif" font-size="12" lengthAdjust="spacing" textLength="171.457" x="353.7588" y="1936.4082">Bloquear entrega fuera de plazo</text><rect fill="#F1F1F1" height="33.7988" rx="12.5" ry="12.5" style="stroke:#181818;stroke-width:0.5;" width="186.7813" x="346.0967" y="1968.9512"/><text fill="#000000" font-family="sans-serif" font-size="12" lengthAdjust="spacing" textLength="166.7813" x="356.0967" y="1990.207">Mantener grupo en elaboraci&#243;n</text><polygon fill="#F1F1F1" points="320.0874,2008.75,332.0874,2020.75,320.0874,2032.75,308.0874,2020.75,320.0874,2008.75" style="stroke:#181818;stroke-width:0.5;stroke-linejoin:miter;stroke-miterlimit:10;"/><rect fill="none" height="81.8975" style="stroke:#000000;stroke-width:1.5;" width="390.1914" x="124.9917" y="2054.75"/><path d="M244.688,2054.75 L244.688,2063.8486 L234.688,2073.8486 L124.9917,2073.8486" fill="none" style="stroke:#000000;stroke-width:1.5;"/><text fill="#000000" font-family="sans-serif" font-size="14" lengthAdjust="spacing" textLength="109.6963" x="127.9917" y="2068.8818">Comisi&#243;n de TFG</text><rect fill="#F1F1F1" height="33.7988" rx="12.5" ry="12.5" style="stroke:#181818;stroke-width:0.5;" width="370.1914" x="134.9917" y="2090.8486"/><text fill="#000000" font-family="sans-serif" font-size="12" lengthAdjust="spacing" textLength="350.1914" x="144.9917" y="2112.1045">Generar listado de grupos sin entrega al acercarse el vencimiento</text><ellipse cx="320.0874" cy="2167.6475" fill="none" rx="11" ry="11" style="stroke:#222222;stroke-width:1;"/><ellipse cx="320.0874" cy="2167.6475" fill="#222222" rx="6" ry="6" style="stroke:#222222;stroke-width:1;"/><line style="stroke:#181818;stroke-width:1;" x1="320.0874" x2="320.0874" y1="88.1973" y2="134.2959"/><polygon fill="#181818" points="316.0874,124.2959,324.0874,124.2959,320.0874,134.2959" style="stroke:#181818;stroke-width:1;stroke-linejoin:miter;stroke-miterlimit:10;"/><line style="stroke:#181818;stroke-width:1;" x1="320.0874" x2="320.0874" y1="168.0947" y2="226.1934"/><polygon fill="#181818" points="316.0874,216.1934,324.0874,216.1934,320.0874,226.1934" style="stroke:#181818;stroke-width:1;stroke-linejoin:miter;stroke-miterlimit:10;"/><line style="stroke:#181818;stroke-width:1;" x1="320.0874" x2="320.0874" y1="351.8896" y2="371.8896"/><polygon fill="#181818" points="316.0874,361.8896,324.0874,361.8896,320.0874,371.8896" style="stroke:#181818;stroke-width:1;stroke-linejoin:miter;stroke-miterlimit:10;"/><line style="stroke:#181818;stroke-width:1;" x1="320.0874" x2="320.0874" y1="259.9922" y2="318.0908"/><polygon fill="#181818" points="316.0874,308.0908,324.0874,308.0908,320.0874,318.0908" style="stroke:#181818;stroke-width:1;stroke-linejoin:miter;stroke-miterlimit:10;"/><line style="stroke:#181818;stroke-width:1;" x1="223.5552" x2="223.5552" y1="585.3848" y2="605.3848"/><polygon fill="#181818" points="219.5552,595.3848,227.5552,595.3848,223.5552,605.3848" style="stroke:#181818;stroke-width:1;stroke-linejoin:miter;stroke-miterlimit:10;"/><line style="stroke:#181818;stroke-width:1;" x1="416.6196" x2="416.6196" y1="585.3848" y2="605.3848"/><polygon fill="#181818" points="412.6196,595.3848,420.6196,595.3848,416.6196,605.3848" style="stroke:#181818;stroke-width:1;stroke-linejoin:miter;stroke-miterlimit:10;"/><line style="stroke:#181818;stroke-width:1;" x1="259.4817" x2="223.5552" y1="529.5859" y2="529.5859"/><line style="stroke:#181818;stroke-width:1;" x1="223.5552" x2="223.5552" y1="529.5859" y2="551.5859"/><polygon fill="#181818" points="219.5552,541.5859,227.5552,541.5859,223.5552,551.5859" style="stroke:#181818;stroke-width:1;stroke-linejoin:miter;stroke-miterlimit:10;"/><line style="stroke:#181818;stroke-width:1;" x1="380.6931" x2="416.6196" y1="529.5859" y2="529.5859"/><line style="stroke:#181818;stroke-width:1;" x1="416.6196" x2="416.6196" y1="529.5859" y2="551.5859"/><polygon fill="#181818" points="412.6196,541.5859,420.6196,541.5859,416.6196,551.5859" style="stroke:#181818;stroke-width:1;stroke-linejoin:miter;stroke-miterlimit:10;"/><line style="stroke:#181818;stroke-width:1;" x1="223.5552" x2="223.5552" y1="639.1836" y2="644.1836"/><line style="stroke:#181818;stroke-width:1;" x1="223.5552" x2="320.0874" y1="644.1836" y2="644.1836"/><line style="stroke:#181818;stroke-width:1;" x1="320.0874" x2="320.0874" y1="644.1836" y2="697.2822"/><polygon fill="#181818" points="316.0874,687.2822,324.0874,687.2822,320.0874,697.2822" style="stroke:#181818;stroke-width:1;stroke-linejoin:miter;stroke-miterlimit:10;"/><line style="stroke:#181818;stroke-width:1;" x1="320.0874" x2="320.0874" y1="497.5859" y2="517.5859"/><polygon fill="#181818" points="316.0874,507.5859,324.0874,507.5859,320.0874,517.5859" style="stroke:#181818;stroke-width:1;stroke-linejoin:miter;stroke-miterlimit:10;"/><line style="stroke:#181818;stroke-width:1;" x1="320.0874" x2="320.0874" y1="405.6885" y2="463.7871"/><polygon fill="#181818" points="316.0874,453.7871,324.0874,453.7871,320.0874,463.7871" style="stroke:#181818;stroke-width:1;stroke-linejoin:miter;stroke-miterlimit:10;"/><line style="stroke:#181818;stroke-width:1;" x1="320.0874" x2="320.0874" y1="731.0811" y2="751.0811"/><polygon fill="#181818" points="316.0874,741.0811,324.0874,741.0811,320.0874,751.0811" style="stroke:#181818;stroke-width:1;stroke-linejoin:miter;stroke-miterlimit:10;"/><line style="stroke:#181818;stroke-width:1;" x1="320.0874" x2="320.0874" y1="876.7773" y2="896.7773"/><polygon fill="#181818" points="316.0874,886.7773,324.0874,886.7773,320.0874,896.7773" style="stroke:#181818;stroke-width:1;stroke-linejoin:miter;stroke-miterlimit:10;"/><line style="stroke:#181818;stroke-width:1;" x1="320.0874" x2="320.0874" y1="784.8799" y2="842.9785"/><polygon fill="#181818" points="316.0874,832.9785,324.0874,832.9785,320.0874,842.9785" style="stroke:#181818;stroke-width:1;stroke-linejoin:miter;stroke-miterlimit:10;"/><line style="stroke:#181818;stroke-width:1;" x1="320.0874" x2="320.0874" y1="930.5762" y2="988.6748"/><polygon fill="#181818" points="316.0874,978.6748,324.0874,978.6748,320.0874,988.6748" style="stroke:#181818;stroke-width:1;stroke-linejoin:miter;stroke-miterlimit:10;"/><line style="stroke:#181818;stroke-width:1;" x1="320.0874" x2="320.0874" y1="1022.4736" y2="1080.5723"/><polygon fill="#181818" points="316.0874,1070.5723,324.0874,1070.5723,320.0874,1080.5723" style="stroke:#181818;stroke-width:1;stroke-linejoin:miter;stroke-miterlimit:10;"/><line style="stroke:#181818;stroke-width:1;" x1="320.0874" x2="320.0874" y1="1114.3711" y2="1172.4697"/><polygon fill="#181818" points="316.0874,1162.4697,324.0874,1162.4697,320.0874,1172.4697" style="stroke:#181818;stroke-width:1;stroke-linejoin:miter;stroke-miterlimit:10;"/><line style="stroke:#181818;stroke-width:1;" x1="201.6953" x2="201.6953" y1="1385.9648" y2="1405.9648"/><polygon fill="#181818" points="197.6953,1395.9648,205.6953,1395.9648,201.6953,1405.9648" style="stroke:#181818;stroke-width:1;stroke-linejoin:miter;stroke-miterlimit:10;"/><line style="stroke:#181818;stroke-width:1;" x1="438.4795" x2="438.4795" y1="1385.9648" y2="1405.9648"/><polygon fill="#181818" points="434.4795,1395.9648,442.4795,1395.9648,438.4795,1405.9648" style="stroke:#181818;stroke-width:1;stroke-linejoin:miter;stroke-miterlimit:10;"/><line style="stroke:#181818;stroke-width:1;" x1="238.3975" x2="201.6953" y1="1330.166" y2="1330.166"/><line style="stroke:#181818;stroke-width:1;" x1="201.6953" x2="201.6953" y1="1330.166" y2="1352.166"/><polygon fill="#181818" points="197.6953,1342.166,205.6953,1342.166,201.6953,1352.166" style="stroke:#181818;stroke-width:1;stroke-linejoin:miter;stroke-miterlimit:10;"/><line style="stroke:#181818;stroke-width:1;" x1="401.7773" x2="438.4795" y1="1330.166" y2="1330.166"/><line style="stroke:#181818;stroke-width:1;" x1="438.4795" x2="438.4795" y1="1330.166" y2="1352.166"/><polygon fill="#181818" points="434.4795,1342.166,442.4795,1342.166,438.4795,1352.166" style="stroke:#181818;stroke-width:1;stroke-linejoin:miter;stroke-miterlimit:10;"/><line style="stroke:#181818;stroke-width:1;" x1="201.6953" x2="201.6953" y1="1439.7637" y2="1444.7637"/><line style="stroke:#181818;stroke-width:1;" x1="201.6953" x2="320.0874" y1="1444.7637" y2="1444.7637"/><line style="stroke:#181818;stroke-width:1;" x1="320.0874" x2="320.0874" y1="1444.7637" y2="1497.8623"/><polygon fill="#181818" points="316.0874,1487.8623,324.0874,1487.8623,320.0874,1497.8623" style="stroke:#181818;stroke-width:1;stroke-linejoin:miter;stroke-miterlimit:10;"/><line style="stroke:#181818;stroke-width:1;" x1="320.0874" x2="320.0874" y1="1298.166" y2="1318.166"/><polygon fill="#181818" points="316.0874,1308.166,324.0874,1308.166,320.0874,1318.166" style="stroke:#181818;stroke-width:1;stroke-linejoin:miter;stroke-miterlimit:10;"/><line style="stroke:#181818;stroke-width:1;" x1="320.0874" x2="320.0874" y1="1206.2686" y2="1264.3672"/><polygon fill="#181818" points="316.0874,1254.3672,324.0874,1254.3672,320.0874,1264.3672" style="stroke:#181818;stroke-width:1;stroke-linejoin:miter;stroke-miterlimit:10;"/><line style="stroke:#181818;stroke-width:1;" x1="320.0874" x2="320.0874" y1="1531.6611" y2="1589.7598"/><polygon fill="#181818" points="316.0874,1579.7598,324.0874,1579.7598,320.0874,1589.7598" style="stroke:#181818;stroke-width:1;stroke-linejoin:miter;stroke-miterlimit:10;"/><line style="stroke:#181818;stroke-width:1;" x1="320.0874" x2="320.0874" y1="1715.4561" y2="1735.4561"/><polygon fill="#181818" points="316.0874,1725.4561,324.0874,1725.4561,320.0874,1735.4561" style="stroke:#181818;stroke-width:1;stroke-linejoin:miter;stroke-miterlimit:10;"/><line style="stroke:#181818;stroke-width:1;" x1="320.0874" x2="320.0874" y1="1623.5586" y2="1681.6572"/><polygon fill="#181818" points="316.0874,1671.6572,324.0874,1671.6572,320.0874,1681.6572" style="stroke:#181818;stroke-width:1;stroke-linejoin:miter;stroke-miterlimit:10;"/><line style="stroke:#181818;stroke-width:1;" x1="200.6875" x2="200.6875" y1="1948.9512" y2="1968.9512"/><polygon fill="#181818" points="196.6875,1958.9512,204.6875,1958.9512,200.6875,1968.9512" style="stroke:#181818;stroke-width:1;stroke-linejoin:miter;stroke-miterlimit:10;"/><line style="stroke:#181818;stroke-width:1;" x1="439.4873" x2="439.4873" y1="1948.9512" y2="1968.9512"/><polygon fill="#181818" points="435.4873,1958.9512,443.4873,1958.9512,439.4873,1968.9512" style="stroke:#181818;stroke-width:1;stroke-linejoin:miter;stroke-miterlimit:10;"/><line style="stroke:#181818;stroke-width:1;" x1="257.3306" x2="200.6875" y1="1893.1523" y2="1893.1523"/><line style="stroke:#181818;stroke-width:1;" x1="200.6875" x2="200.6875" y1="1893.1523" y2="1915.1523"/><polygon fill="#181818" points="196.6875,1905.1523,204.6875,1905.1523,200.6875,1915.1523" style="stroke:#181818;stroke-width:1;stroke-linejoin:miter;stroke-miterlimit:10;"/><line style="stroke:#181818;stroke-width:1;" x1="382.8442" x2="439.4873" y1="1893.1523" y2="1893.1523"/><line style="stroke:#181818;stroke-width:1;" x1="439.4873" x2="439.4873" y1="1893.1523" y2="1915.1523"/><polygon fill="#181818" points="435.4873,1905.1523,443.4873,1905.1523,439.4873,1915.1523" style="stroke:#181818;stroke-width:1;stroke-linejoin:miter;stroke-miterlimit:10;"/><line style="stroke:#181818;stroke-width:1;" x1="200.6875" x2="200.6875" y1="2002.75" y2="2020.75"/><line style="stroke:#181818;stroke-width:1;" x1="200.6875" x2="308.0874" y1="2020.75" y2="2020.75"/><polygon fill="#181818" points="298.0874,2016.75,308.0874,2020.75,298.0874,2024.75" style="stroke:#181818;stroke-width:1;stroke-linejoin:miter;stroke-miterlimit:10;"/><line style="stroke:#181818;stroke-width:1;" x1="439.4873" x2="439.4873" y1="2002.75" y2="2020.75"/><line style="stroke:#181818;stroke-width:1;" x1="439.4873" x2="332.0874" y1="2020.75" y2="2020.75"/><polygon fill="#181818" points="342.0874,2016.75,332.0874,2020.75,342.0874,2024.75" style="stroke:#181818;stroke-width:1;stroke-linejoin:miter;stroke-miterlimit:10;"/><line style="stroke:#181818;stroke-width:1;" x1="320.0874" x2="320.0874" y1="1861.1523" y2="1881.1523"/><polygon fill="#181818" points="316.0874,1871.1523,324.0874,1871.1523,320.0874,1881.1523" style="stroke:#181818;stroke-width:1;stroke-linejoin:miter;stroke-miterlimit:10;"/><line style="stroke:#181818;stroke-width:1;" x1="320.0874" x2="320.0874" y1="1769.2549" y2="1827.3535"/><polygon fill="#181818" points="316.0874,1817.3535,324.0874,1817.3535,320.0874,1827.3535" style="stroke:#181818;stroke-width:1;stroke-linejoin:miter;stroke-miterlimit:10;"/><line style="stroke:#181818;stroke-width:1;" x1="320.0874" x2="320.0874" y1="2032.75" y2="2090.8486"/><polygon fill="#181818" points="316.0874,2080.8486,324.0874,2080.8486,320.0874,2090.8486" style="stroke:#181818;stroke-width:1;stroke-linejoin:miter;stroke-miterlimit:10;"/><line style="stroke:#181818;stroke-width:1;" x1="320.0874" x2="320.0874" y1="2124.6475" y2="2156.6475"/><polygon fill="#181818" points="316.0874,2146.6475,324.0874,2146.6475,320.0874,2156.6475" style="stroke:#181818;stroke-width:1;stroke-linejoin:miter;stroke-miterlimit:10;"/><g class="legend" data-source-line="95"><rect fill="#DDDDDD" height="26.0986" rx="7.5" ry="7.5" style="stroke:#000000;stroke-width:1;" width="550.832" x="22" y="2199.6475"/><text fill="#000000" font-family="sans-serif" font-size="14" lengthAdjust="spacing" textLength="540.832" x="27" y="2217.7793">Actividad global de la primera etapa del TFG. No incorpora dictamen, defensa ni cierre.</text></g><?plantuml-src bLRDRXH74BxFKnISZBIn02aSy04POomEM963SigbjgTsND3JFNJtRBAWI7c8l00Fu5DkkI2nRyAJvEkUMNRNzgxXCZi_rLzzzTNNrNkl2zoqJ9ONlayKMqdik8hlr7KSkAMO5bPm3MfItzhDBvTS-p_KDJHZ6wLAcX3v-6Vw-lS_z4AvGH1JBSGcwLnhhYNYqL8Nl97eIPqQPLlUlNbvzhkxUFdJmqU7X_XvzFY8Bix7n_pxfA1USanCubAGXcdcGpikPvS4i0inoLSLWaAgAj049_MExf_uLgCk_tMP3tBTfuyLqTCJxsRQz843HMa5LGejQ2O6YSXOdijHzTSMqAyQaxGyhl-bdrerM6s2TtueUApg-iBJcFfQCyzrxjXRC2L8tY7VzSI8kP06-JAz9lIT9mCa1GGouHedbBdWuX93OWy8H2JexVVp_eqj-X6evkGZUHJHu2we1wG1T6vMLceZ5x0x2KWb3kNHyZ-KoPcapkZWo-TNBfgWdIaQpvUVClwp1vGknT51N5uzGEJDWew6joVSJZKBWSRLdfX6j5G21EQY0-T7Y5Ukz1tH8VXGB0MUw-m3Pao-osjThRDhKkpsmjYFGYskGA5GwSLnrCRXQ-gX50sQ0C3oqBPytmrs66diQy1QXm8t6J4MX88w4E6f7HnmGvetG_f2fhxHvXsrVVFfiCwi8aho_KpFVTBPiDQkcdQNipaqY9zB6AXqGQosciMxlbU_pwPfUPLwwoTvSa2ObYVmx5ifbc_Wo01g2_23TOsiFVcYkBjTNZbjSMDysrd1gxs-l8NrBfUUEdYJfpwi1TskRRTtXus7kPcAaUxqREdw3U_uQPGmHtRl1ZD6QNfmnZouGzcpdaEzYP3vv-bogm-_Vv8LQIPRfiwJOujeyVNfCCF3ECHRK1RwCND868tPMVxWS_chWm7DoGJqmrYO_6caoydpM5wvOsI0CsMgLi5x_xpQFdHsMU9uW_vgINsR4vvR_xwNJTmUDYv395Spuh_ESi3Vu_YNRSCT_TY0Eoix9P3LWIq-ZfCkgll60rk9ZGJe6aj3vddURrYgcBIoWdrNqzIdvDlgU7N0KsFzj1p9UIvsGTjSL3dVLgVy8Ptdaz_uqFbSCFvMCBe_mVUPm73ab8nYjijXXHH3ely1?></g></svg>